<?xml version="1.0" encoding="UTF-8"?>
<svg id="Layer_2" data-name="Layer 2" xmlns="http://www.w3.org/2000/svg" viewBox="0 0 340 340">
  <defs>
    <style>
      .cls-1 {
        fill: #fff;
      }

      .cls-2 {
        fill: #231f20;
      }
    </style>
  </defs>
  <g id="Live_Logos" data-name="Live Logos">
    <g>
      <g>
        <path class="cls-1" d="M170,0C76.11,0,0,76.11,0,170s76.11,170,170,170,170-76.11,170-170S263.89,0,170,0Zm104.51,152.13c-4.57,3.19-9.16,6.36-13.74,9.54-3.28,2.27-6.56,4.54-9.84,6.82-.45,.31-.88,.64-1.48,1.07,2.17,3.14,4.25,6.14,6.32,9.15,.78,1.12,1.58,2.24,2.29,3.4,.8,1.3,.7,1.82-.54,2.78-3.92,3.06-7.86,6.1-11.79,9.15-.56,.43-1.11,.86-1.73,1.34,.24,.39,.42,.72,.62,1.03,5.95,9.11,11.87,18.23,17.9,27.3,1.24,1.86,1.16,3.45,.13,5.32-5.71,10.36-13.08,19.38-21.9,27.23-15.95,14.19-33.97,24.9-54.15,31.93-6.54,2.28-45.66,12.47-65.75-3.41-9.86-7.79-16.78-17.71-21.2-29.43-1.52-4.02-2.38-8.17-2.94-12.41-.7-5.19,.36-10.13,2.14-14.94,1.82-4.92,3.76-9.79,5.59-14.7,.62-1.67,1.07-3.41,1.6-5.14-1.08-.6-1.96-1.14-2.89-1.58-5.32-2.54-8.45-6.92-10.43-12.29-1.36-3.69-1.69-7.56-1.97-11.44-.09-1.25-.11-2.5-.17-3.76-.11-2.5-1.09-4.66-2.8-6.48-4.41-4.7-8.82-9.41-13.34-14.01-3.06-3.12-6.31-6.05-9.47-9.07-1.54-1.47-1.68-2.72-.41-4.46,2-2.73,4.07-5.41,6.08-8.13,1.29-1.76,2.43-3.64,3.79-5.35,5.7-7.14,11.42-14.25,17.19-21.33,5.5-6.75,11.71-12.84,18.07-18.77,4.51-4.2,9.53-7.69,15.08-10.38,4.25-2.06,8.82-3.4,13.5-4.08,1.26-.18,2.52-.34,3.9-.52-.08-1.15-.21-2.27-.23-3.4-.17-9.46,3.08-17.44,10.35-23.62,1.19-1.01,2.64-1.74,3.99-2.56,1.04-.64,2.05-.49,3.08,.14,1.84,1.13,3.44,2.52,4.78,4.2,2.98,3.72,4.61,8.03,5.39,12.69,.64,3.8,.66,7.62,.1,11.44-.03,.21,0,.42,0,.8,1.44-.2,2.82-.39,4.19-.58,4.36-.6,8.73-.55,13.08-.04,15.78,1.83,29.85,8.07,42.89,16.84,17.03,11.45,30.82,25.96,40.6,44.09,2.04,3.79,3.64,7.82,5.32,11.79,.99,2.36,.89,2.45-1.17,3.88Z"/>
        <path class="cls-2" d="M181.8,91.76c2.09-1.71,4.37-3.12,7.04-3.69,5.01-1.07,9.39,.24,12.76,4.06,3.69,4.17,5.86,9.21,7.1,14.6,3.49,15.21,1.13,29.51-6.99,42.84-.91,1.49-2.06,2.83-3.08,4.24-.19,.27-.34,.56-.58,.97-1.68-1.49-3.1-2.76-4.56-4.06,.34-.43,.65-.8,.95-1.18,5.4-6.64,7.99-14.23,7.55-22.79-.15-2.86-.83-5.62-2.07-8.21-.28-.59-.6-1.17-.97-1.71-.86-1.25-1.51-1.46-2.94-.88-2.33,.94-4.63,1.94-6.94,2.92-6.63,2.82-13.26,5.64-19.88,8.46-.44,.19-.89,.36-1.51,.61-.05-.52-.13-.93-.11-1.33,.39-8.91,2.31-17.42,6.6-25.31,1.97-3.63,4.41-6.91,7.64-9.54Z"/>
        <path class="cls-2" d="M185.03,128.83c2.76-1.33,5.54-2.66,8.31-3.99,2.39,4.89-1.22,17.75-6.16,22.03-1.5-.99-3.02-2-4.59-3.04,3.88-4.51,3.88-9.54,2.44-15Z"/>
        <path class="cls-2" d="M110.2,116.06c.68-4.62,1.96-9.08,4.23-13.2,1.17-2.13,2.59-4.06,4.46-5.62,2.7-2.24,5.74-3.39,9.27-2.53,.98,.24,1.98,.64,2.82,1.21,2.85,1.95,4.94,4.61,6.64,7.59,2.52,4.41,4,9.21,4.95,14.17,.9,4.74,1.29,9.53,1.34,14.35,0,.36-.04,.73-.07,1.4-.66-.49-1.13-.82-1.59-1.17-6.85-5.26-13.7-10.52-20.56-15.77-.39-.3-.78-.59-1.19-.87-.67-.45-1.35-.47-1.94,.11-.62,.61-1.27,1.21-1.77,1.92-2.6,3.68-3.81,7.83-4.06,12.29-.38,6.83,1.15,13.13,5.39,18.64,.06,.08,.09,.19,.18,.41-1.08,1.14-2.2,2.31-3.44,3.61-.27-.59-.52-1.06-.7-1.54-4.25-11.32-5.71-22.98-3.94-34.97Z"/>
        <path class="cls-2" d="M128.27,141.33c-1.46,.95-2.84,1.86-4.21,2.75-4.09-4.31-5.84-13.81-2.54-19.4,1.9,1.48,3.78,2.95,5.77,4.5-2.81,4.26-2.66,8.31,.98,12.15Z"/>
        <path class="cls-2" d="M104.25,196.77c-3.3-3.89-5.03-8.4-5.18-13.5-.04-1.42-.04-2.84,.01-4.26,.15-4.71-1.02-9.02-4-12.7-3.3-4.08-6.6-8.18-10.54-11.67-3.31-2.93-6.77-5.7-10.16-8.54-.21-.18-.44-.32-.75-.54,9.58-11.14,19.04-22.13,28.49-33.13-.26,7.02-.21,13.83,.45,20.65,.72,7.54,2.31,14.89,4.73,22.06,.59,1.75,1.4,3.43,2.15,5.13,.25,.57,.43,1.05,.14,1.7-2.03,4.48-2.46,9.27-2.49,14.1-.04,6.34,.06,12.67,.1,19.01,0,1.29,0,2.58,0,4.23-1.3-.88-2.18-1.65-2.94-2.55Z"/>
        <path class="cls-2" d="M142.29,271.71c.24-1.5,1.03-2.61,2.34-3.38,.78-.46,1.46-.32,2.11,.23,1.11,.94,1.64,2.17,1.74,3.59,.12,1.91,.19,3.82,.27,5.74,.03,0,.06,0,.08,0-.09,2.51-.19,5.02-.27,7.54-.04,1.21-.49,2.23-1.29,3.11-1,1.09-2.3,1.04-3.47,.16-1.39-1.05-1.73-2.55-1.79-4.06-.17-4.31-.39-8.63,.29-12.93Z"/>
        <path class="cls-2" d="M109.66,257.5c7.37,5.87,15.27,10.76,24.48,13.51v10.95c-11.21-5.4-19.15-13.6-24.48-24.47Z"/>
        <path class="cls-2" d="M252.98,226.41c-.26,.48-.49,.91-.73,1.33-5.35,8.97-12.25,16.63-20.12,23.42-15.21,13.12-32.35,22.83-51.54,28.86-6.69,2.1-13.53,3.46-20.52,4.05-.69,.06-1.39,0-2.24,0v-12.06c.74-.2,1.62-.45,2.5-.66,23.72-5.82,44.22-17.37,61.36-34.76,7.78-7.89,14.11-16.83,18.37-27.13,.08-.19,.19-.37,.43-.84,4.24,6.03,8.36,11.89,12.5,17.79Z"/>
        <path class="cls-2" d="M200.46,229.68c-.11-.82,0-1.41,.73-1.97,6.32-4.78,12.61-9.6,18.91-14.41,.21-.16,.44-.3,.77-.53,1.47,2.15,2.91,4.24,4.37,6.38-7.14,10.28-16,18.58-26.45,25.56,.47-1.8,.95-3.35,1.28-4.94,.71-3.34,.85-6.72,.39-10.11Z"/>
        <path class="cls-2" d="M264.32,148.66c-8.09,5.59-16.19,11.18-24.29,16.77-.22,.16-.45,.31-.67,.47-1.66,1.21-1.78,1.76-.64,3.52,2.62,4.03,5.28,8.04,8.03,12.23-16.1,12.28-32.18,24.55-48.38,36.91-.71-1.75-.87-3.38-.92-4.99-.14-4.2-.27-8.41-.22-12.62,.08-6.06,1.41-11.91,3.23-17.67,1.35-4.27,2.54-8.58,3.74-12.89,.17-.62,.39-1.08,.93-1.43,4.52-2.94,8.03-6.9,11.07-11.29,5.5-7.92,9.25-16.59,10.95-26.1,.73-4.06,.97-8.15,.11-12.23-.21-.99-.63-1.97-1.12-2.86-.3-.54-.87-1.05-1.64-.77-.77,.28-.8,.97-.76,1.64,.94,15.09-5.05,27.54-14.68,38.59-.77,.88-1.68,1.63-2.76,2.24,.21-.34,.41-.7,.64-1.03,5.88-8.46,9.34-17.87,10.86-28.02,1.27-8.47,1.08-16.89-1.01-25.23-.92-3.67-2.25-7.19-4.05-10.53-.17-.32-.32-.65-.38-1.08,11.57,5.49,21.69,12.96,30.57,22.12,9.49,9.78,17.03,20.88,22.4,33.48-.41,.32-.7,.56-1.01,.77Z"/>
        <path class="cls-1" d="M265.33,147.89c-.41,.32-.7,.56-1.01,.77-8.09,5.59-16.19,11.18-24.29,16.77-.22,.16-.45,.31-.67,.47-1.66,1.21-1.78,1.76-.64,3.52,2.62,4.03,5.28,8.04,8.03,12.23-16.1,12.28-32.18,24.55-48.38,36.91-.71-1.75-.87-3.38-.92-4.99-.14-4.2-.27-8.41-.22-12.62,.08-6.06,1.41-11.91,3.23-17.67,1.35-4.27,2.54-8.58,3.74-12.89,.17-.62,.39-1.08,.93-1.43,4.52-2.94,8.03-6.9,11.07-11.29,5.5-7.92,9.25-16.59,10.95-26.1,.73-4.06,.97-8.15,.11-12.23-.21-.99-.63-1.97-1.12-2.86-.3-.54-.87-1.05-1.64-.77-.77,.28-.8,.97-.76,1.64,.94,15.09-5.05,27.54-14.68,38.59-.77,.88-1.68,1.63-2.76,2.24,.21-.34,.41-.7,.64-1.03,5.88-8.46,9.34-17.87,10.86-28.02,1.27-8.47,1.08-16.89-1.01-25.23-.92-3.67-2.25-7.19-4.05-10.53-.17-.32-.32-.65-.38-1.08,11.57,5.49,21.69,12.96,30.57,22.12,9.49,9.78,17.03,20.88,22.4,33.48Z"/>
        <path class="cls-1" d="M157.82,284.07v-12.06c.74-.2,1.62-.45,2.5-.66,23.72-5.82,44.22-17.37,61.36-34.76,7.78-7.89,14.11-16.83,18.37-27.13,.08-.19,.19-.37,.43-.84,4.24,6.03,8.36,11.89,12.5,17.79-.26,.48-.49,.91-.73,1.33-5.35,8.97-12.25,16.63-20.12,23.42-15.21,13.12-32.35,22.84-51.54,28.86-6.69,2.1-13.53,3.46-20.52,4.05-.69,.06-1.39,0-2.24,0Z"/>
        <path class="cls-1" d="M198.04,154.77c-1.68-1.49-3.1-2.76-4.56-4.06,.34-.43,.65-.8,.95-1.18,5.4-6.64,7.99-14.23,7.55-22.79-.15-2.86-.83-5.62-2.07-8.21-.28-.59-.6-1.17-.97-1.71-.86-1.25-1.51-1.46-2.94-.88-2.33,.94-4.63,1.94-6.94,2.92-6.63,2.82-13.26,5.64-19.88,8.46-.44,.19-.89,.36-1.51,.61-.05-.52-.13-.93-.11-1.33,.39-8.91,2.31-17.42,6.6-25.31,1.97-3.63,4.41-6.91,7.64-9.54,2.09-1.71,4.37-3.12,7.04-3.69,5.01-1.07,9.39,.24,12.76,4.06,3.69,4.17,5.86,9.21,7.1,14.6,3.49,15.21,1.13,29.51-6.99,42.84-.91,1.49-2.06,2.83-3.08,4.24-.19,.27-.34,.56-.58,.97Z"/>
        <path class="cls-1" d="M102.13,112.43c-.26,7.02-.21,13.83,.45,20.65,.72,7.54,2.31,14.89,4.73,22.06,.59,1.75,1.4,3.43,2.15,5.13,.25,.57,.43,1.05,.14,1.7-2.03,4.48-2.46,9.27-2.49,14.1-.04,6.34,.06,12.67,.1,19.01,0,1.29,0,2.58,0,4.23-1.3-.88-2.18-1.65-2.95-2.55-3.3-3.89-5.03-8.4-5.18-13.5-.04-1.42-.04-2.84,.01-4.26,.15-4.71-1.02-9.02-4-12.7-3.3-4.08-6.6-8.18-10.54-11.67-3.31-2.93-6.77-5.7-10.16-8.54-.21-.17-.44-.32-.75-.54,9.58-11.14,19.04-22.13,28.49-33.13Z"/>
        <path class="cls-1" d="M143.83,133.42c-.66-.49-1.13-.82-1.59-1.17-6.85-5.26-13.7-10.52-20.56-15.77-.39-.3-.78-.59-1.19-.87-.67-.45-1.35-.47-1.94,.11-.62,.61-1.27,1.21-1.77,1.92-2.6,3.68-3.81,7.83-4.06,12.29-.38,6.83,1.15,13.13,5.39,18.64,.06,.08,.09,.19,.18,.41-1.08,1.14-2.2,2.31-3.44,3.61-.27-.59-.52-1.06-.7-1.54-4.25-11.32-5.71-22.98-3.94-34.97,.68-4.62,1.96-9.08,4.23-13.2,1.17-2.13,2.59-4.06,4.46-5.62,2.7-2.24,5.74-3.39,9.27-2.53,.98,.24,1.98,.64,2.82,1.21,2.85,1.95,4.94,4.61,6.64,7.59,2.52,4.41,4,9.21,4.95,14.17,.9,4.74,1.29,9.53,1.34,14.35,0,.36-.04,.73-.07,1.4Z"/>
        <path class="cls-1" d="M198.79,244.73c.47-1.8,.95-3.35,1.28-4.94,.71-3.34,.85-6.72,.39-10.11-.11-.82,0-1.41,.73-1.97,6.32-4.78,12.61-9.6,18.91-14.41,.21-.16,.44-.3,.77-.53,1.47,2.15,2.91,4.24,4.37,6.38-7.14,10.28-16,18.58-26.45,25.56Z"/>
        <path class="cls-1" d="M134.14,281.96c-11.21-5.4-19.15-13.6-24.48-24.47,7.37,5.87,15.27,10.76,24.48,13.51v10.95Z"/>
        <path class="cls-1" d="M187.18,146.87c-1.5-.99-3.02-2-4.59-3.04,3.88-4.51,3.88-9.54,2.44-15,2.76-1.33,5.54-2.66,8.31-3.99,2.39,4.89-1.22,17.75-6.17,22.03Z"/>
        <path class="cls-1" d="M148.83,277.9c-.09,2.51-.19,5.02-.27,7.53-.04,1.21-.49,2.23-1.29,3.11-1,1.09-2.3,1.04-3.47,.16-1.39-1.05-1.73-2.55-1.79-4.06-.17-4.31-.39-8.63,.29-12.93,.24-1.5,1.03-2.61,2.34-3.38,.78-.46,1.46-.32,2.11,.23,1.11,.94,1.64,2.17,1.74,3.59,.12,1.91,.19,3.82,.27,5.74h.08Z"/>
        <path class="cls-1" d="M121.52,124.68c1.9,1.48,3.78,2.95,5.77,4.5-2.81,4.26-2.66,8.31,.98,12.15-1.46,.95-2.84,1.86-4.21,2.75-4.09-4.31-5.84-13.81-2.54-19.4Z"/>
        <path class="cls-1" d="M155.33,152.46c-.49-.23-1.01-.44-1.54-.56-2.75-.65-5.53-.69-8.3-.22-1.39,.24-2.76,.67-4.07,1.18-.93,.36-2.17,.8-2.07,2.03,.1,1.19,1.38,1.52,2.34,1.76,1.84,.46,3.73,.7,5.6,1.04,2.86-.22,5.59-.62,8.13-1.93,.72-.37,1.6-.79,1.6-1.71,0-.95-.96-1.23-1.69-1.58Z"/>
        <path class="cls-1" d="M196.02,163.53c-.7-1.34-1.58-2.62-2.54-3.8-2.31-2.85-5.43-4.75-8.46-6.69-5.94-3.81-12.13-7.16-18.71-9.76-1.93-.76-3.86-1.52-5.78-2.29-1.5-.6-2.43-1.63-2.46-3.32-.07-5.31,.03-10.61,.82-15.87,1.01-6.68,3.16-13.04,5.57-19.33,2.41-6.28,5.98-11.77,10.93-16.35,.75-.69,1.5-1.37,2.44-2.23-.55-.08-.85-.16-1.15-.16-3.23,0-6.45,.2-9.6,.98-1.9,.47-3.77,1.08-5.66,1.64-1.32,.39-2.25,.09-2.54-1.01-.14-.52,.01-1.19,.22-1.71,1.24-3.13,1.92-6.38,2.11-9.73,.21-3.81-.25-7.54-1.83-11.06-.72-1.61-1.64-3.09-3.13-4.19-1.35,1.03-2.27,2.38-3.08,3.79-2.16,3.77-3.27,7.86-3.34,12.2-.05,3.17,.41,6.22,2.42,8.84,.1,.13,.18,.28,.24,.43,.51,1.23-.24,2.21-1.58,2.07-.27-.03-.54-.1-.8-.17-3.28-.83-6.61-.84-9.94-.58-2.51,.2-4.97,.74-7.3,1.74-.31,.13-.57,.37-.96,.64,6.4,3.29,10.33,8.57,13.17,14.77,.82,1.78,1.51,3.63,2.14,5.49,2.08,6.15,3.12,12.52,3.52,18.97,.25,3.98,.17,7.98,.18,11.97,0,1.43-.25,1.66-1.5,1.93-4.5,.97-8.78,2.57-12.97,4.46-7.12,3.21-12.77,8.14-17.07,14.62-1.98,2.97-3.51,6.12-4.38,9.64-1.3,5.29-1,10.64-1.02,15.99-.02,3.83,.3,7.65,.24,11.48-.07,4.09-.38,8.17-1.11,12.23-.88,4.86-1.99,9.62-4.14,14.1-1.59,3.29-3.14,6.6-4.69,9.88,2.12,4.52,7.06,11.34,11.19,15.54,3.46,3.52,7.37,6.51,11.21,9.59,.67,.54,1.47,.95,2.24,1.34,.97,.5,1.88,.36,2.71-.4,1.08-.97,1.91-2.09,2.38-3.48,1.93-5.75,3.96-11.46,5.76-17.24,.95-3.06,1.53-6.24,2.3-9.48-.44-.19-.63-.29-.84-.35-5.4-1.57-9.43-4.92-12.48-9.56-.24-.36-.47-.74-.62-1.15-.37-1.03,.09-1.69,1.16-1.83,1.03-.13,1.76,.44,2.54,.94,6.18,3.97,12.86,5.24,20.06,3.78,3.25-.66,6.26-1.88,9.13-3.51,1.1-.63,1.84-.54,2.51,.19,.56,.61,.56,1.19-.12,2.23-2.83,4.3-6.62,7.38-11.6,8.87-1.04,.31-2.11,.51-3.26,.79,0,1.09-.05,2.17,0,3.26,.3,5.29,.5,10.59,.97,15.87,.44,5.01,2.51,9.04,7.39,11.33,2.31,1.09,4.42,1.08,6.53-.08,4.16-2.3,8.3-4.63,12.36-7.09,4.24-2.58,7.86-5.85,10.69-10.01,3.32-4.87,5.21-10.01,4.39-16.02-.67-4.92-1.02-9.89-1.6-14.83-.65-5.56-.77-11.12-.2-16.69,.65-6.34,2.31-12.44,4.49-18.42,.9-2.46,1.85-4.91,2.57-7.43,.54-1.89,.82-3.92-.15-5.77Zm-73.21,14.48c1.96,.01,3.57,1.57,3.61,3.49,.04,1.95-1.52,3.49-3.54,3.49-2.06,0-3.67-1.57-3.67-3.59,0-1.98,1.51-3.42,3.6-3.4Zm-4.49,17.26c-.04-1.86,1.5-3.37,3.44-3.38,1.78,0,3.15,1.3,3.17,3.03,.01,1.82-1.44,3.24-3.35,3.27-1.84,.03-3.21-1.2-3.26-2.92Zm51.7,3.85c-1.93,0-3.4-1.37-3.42-3.19-.02-1.93,1.71-3.62,3.68-3.61,1.9,.02,3.41,1.44,3.44,3.23,.03,1.92-1.67,3.56-3.7,3.56Zm-4.18-17.18c-.01-1.81,1.47-3.19,3.41-3.17,1.97,.02,3.6,1.61,3.57,3.49-.03,1.76-1.44,3.07-3.32,3.07-2.02,0-3.65-1.5-3.66-3.38Zm11.34-18.88c-.86,2.64-2.76,4.57-5.13,5.97-2.38,1.41-3.2,2.22-5.96,2.48-1.3,.12-4.37,.24-5.76,.36-2.5,6.94-5.22,11.84-12.78,13.46-.04,.35-.08,.51-.07,.67,.13,2.84,.26,5.68,.39,8.58,.5,.34,.98,.68,1.48,1,6.89,4.44,13.78,8.88,20.67,13.32,.46,.3,.92,.6,1.33,.95,.51,.44,.65,1.02,.34,1.63-.31,.61-.87,.88-1.51,.71-.73-.19-1.45-.49-2.14-.8-6.9-3.15-13.82-6.28-20.69-9.5-1.24-.58-2.24-.64-3.52-.07-6.03,2.7-12.1,5.3-18.16,7.94-.6,.26-1.2,.55-1.82,.73-.86,.24-1.66-.24-2.1-1.17-.37-.78-.09-1.38,.56-1.85,.49-.35,.99-.69,1.49-1.01,5.55-3.59,11.09-7.21,16.69-10.73,1.33-.84,2.04-1.69,1.92-3.36-.17-2.28-.04-4.58-.04-7-.06-.04-.22-.23-.41-.27-7.09-1.76-11.28-6.51-13.59-13.19-1.01-2.93-1.57-5.99-1.09-9.04,1.21-7.58,4.84-13.36,12.5-16,5.67-1.95,9.74-2.72,15.66-2.14,6.98,.68,13.42,3,18.69,7.87,3.43,3.17,4.44,6.2,3.06,10.46Zm-15.23,26.74c0,1.68-1.41,3.04-3.18,3.07-1.92,.03-3.58-1.46-3.62-3.26-.05-1.68,1.47-3.16,3.27-3.21,1.76-.05,3.53,1.65,3.53,3.4Zm-32.53-.96c.05-1.71,1.54-2.97,3.45-2.91,1.73,.05,3.09,1.34,3.09,2.93,0,1.67-1.56,3.05-3.4,3.02-1.81-.03-3.19-1.37-3.14-3.04Z"/>
        <path class="cls-1" d="M147.3,157.68c-1.87-.33-3.77-.58-5.6-1.04-.96-.24-2.24-.57-2.34-1.76-.1-1.22,1.14-1.67,2.07-2.03,1.31-.51,2.68-.94,4.07-1.18,2.77-.47,5.55-.43,8.3,.22,.53,.12,1.04,.33,1.54,.56,.73,.34,1.68,.63,1.69,1.58,0,.91-.88,1.33-1.6,1.71-2.53,1.31-5.27,1.72-8.13,1.93Z"/>
      </g>
    </g>
  </g>
</svg>
