<?xml version="1.0" encoding="UTF-8"?>
<svg id="Layer_2" data-name="Layer 2" xmlns="http://www.w3.org/2000/svg" viewBox="0 0 1146.07 340">
  <defs>
    <style>
      .cls-1 {
        fill: #fff;
      }

      .cls-2 {
        fill: #231f20;
      }
    </style>
  </defs>
  <g id="Live_Logos" data-name="Live Logos">
    <g>
      <g>
        <path class="cls-1" d="M170,0C76.11,0,0,76.11,0,170s76.11,170,170,170,170-76.11,170-170S263.89,0,170,0Zm104.51,152.13c-4.57,3.19-9.16,6.36-13.74,9.54-3.28,2.27-6.56,4.54-9.84,6.82-.45,.31-.88,.64-1.48,1.07,2.17,3.14,4.25,6.14,6.32,9.15,.78,1.12,1.58,2.24,2.29,3.4,.8,1.3,.7,1.82-.54,2.78-3.92,3.06-7.86,6.1-11.79,9.15-.56,.43-1.11,.86-1.73,1.34,.24,.39,.42,.72,.62,1.03,5.95,9.11,11.87,18.23,17.9,27.3,1.24,1.86,1.16,3.45,.13,5.32-5.71,10.36-13.08,19.38-21.9,27.23-15.95,14.19-33.97,24.9-54.15,31.93-6.54,2.28-45.66,12.47-65.75-3.41-9.86-7.79-16.78-17.71-21.2-29.43-1.52-4.02-2.38-8.17-2.94-12.41-.7-5.19,.36-10.13,2.14-14.94,1.82-4.92,3.76-9.79,5.59-14.7,.62-1.67,1.07-3.41,1.6-5.14-1.08-.6-1.96-1.14-2.89-1.58-5.32-2.54-8.45-6.92-10.43-12.29-1.36-3.69-1.69-7.56-1.97-11.44-.09-1.25-.11-2.5-.17-3.76-.11-2.5-1.09-4.66-2.8-6.48-4.41-4.7-8.82-9.41-13.34-14.01-3.06-3.12-6.31-6.05-9.47-9.07-1.54-1.47-1.68-2.72-.41-4.46,2-2.73,4.07-5.41,6.08-8.13,1.29-1.76,2.43-3.64,3.79-5.35,5.7-7.14,11.42-14.25,17.19-21.33,5.5-6.75,11.71-12.84,18.07-18.77,4.51-4.2,9.53-7.69,15.08-10.38,4.25-2.06,8.82-3.4,13.5-4.08,1.26-.18,2.52-.34,3.9-.52-.08-1.15-.21-2.27-.23-3.4-.17-9.46,3.08-17.44,10.35-23.62,1.19-1.01,2.64-1.74,3.99-2.56,1.04-.64,2.05-.49,3.08,.14,1.84,1.13,3.44,2.52,4.78,4.2,2.98,3.72,4.61,8.03,5.39,12.69,.64,3.8,.66,7.62,.1,11.44-.03,.21,0,.42,0,.8,1.44-.2,2.82-.39,4.19-.58,4.36-.6,8.73-.55,13.08-.04,15.78,1.83,29.85,8.07,42.89,16.84,17.03,11.45,30.82,25.96,40.6,44.09,2.04,3.79,3.64,7.82,5.32,11.79,.99,2.36,.89,2.45-1.17,3.88Z"/>
        <path class="cls-2" d="M181.8,91.76c2.09-1.71,4.37-3.12,7.04-3.69,5.01-1.07,9.39,.24,12.76,4.06,3.69,4.17,5.86,9.21,7.1,14.6,3.49,15.21,1.13,29.51-6.99,42.84-.91,1.49-2.06,2.83-3.08,4.24-.19,.27-.34,.56-.58,.97-1.68-1.49-3.1-2.76-4.56-4.06,.34-.43,.65-.8,.95-1.18,5.4-6.64,7.99-14.23,7.55-22.79-.15-2.86-.83-5.62-2.07-8.21-.28-.59-.6-1.17-.97-1.71-.86-1.25-1.51-1.46-2.94-.88-2.33,.94-4.63,1.94-6.94,2.92-6.63,2.82-13.26,5.64-19.88,8.46-.44,.19-.89,.36-1.51,.61-.05-.52-.13-.93-.11-1.33,.39-8.91,2.31-17.42,6.6-25.31,1.97-3.63,4.41-6.91,7.64-9.54Z"/>
        <path class="cls-2" d="M185.03,128.83c2.76-1.33,5.54-2.66,8.31-3.99,2.39,4.89-1.22,17.75-6.16,22.03-1.5-.99-3.02-2-4.59-3.04,3.88-4.51,3.88-9.54,2.44-15Z"/>
        <path class="cls-2" d="M110.2,116.06c.68-4.62,1.96-9.08,4.23-13.2,1.17-2.13,2.59-4.06,4.46-5.62,2.7-2.24,5.74-3.39,9.27-2.53,.98,.24,1.98,.64,2.82,1.21,2.85,1.95,4.94,4.61,6.64,7.59,2.52,4.41,4,9.21,4.95,14.17,.9,4.74,1.29,9.53,1.34,14.35,0,.36-.04,.73-.07,1.4-.66-.49-1.13-.82-1.59-1.17-6.85-5.26-13.7-10.52-20.56-15.77-.39-.3-.78-.59-1.19-.87-.67-.45-1.35-.47-1.94,.11-.62,.61-1.27,1.21-1.77,1.92-2.6,3.68-3.81,7.83-4.06,12.29-.38,6.83,1.15,13.13,5.39,18.64,.06,.08,.09,.19,.18,.41-1.08,1.14-2.2,2.31-3.44,3.61-.27-.59-.52-1.06-.7-1.54-4.25-11.32-5.71-22.98-3.94-34.97Z"/>
        <path class="cls-2" d="M128.27,141.33c-1.46,.95-2.84,1.86-4.21,2.75-4.09-4.31-5.84-13.81-2.54-19.4,1.9,1.48,3.78,2.95,5.77,4.5-2.81,4.26-2.66,8.31,.98,12.15Z"/>
        <path class="cls-2" d="M104.25,196.77c-3.3-3.89-5.03-8.4-5.18-13.5-.04-1.42-.04-2.84,.01-4.26,.15-4.71-1.02-9.02-4-12.7-3.3-4.08-6.6-8.18-10.54-11.67-3.31-2.93-6.77-5.7-10.16-8.54-.21-.18-.44-.32-.75-.54,9.58-11.14,19.04-22.13,28.49-33.13-.26,7.02-.21,13.83,.45,20.65,.72,7.54,2.31,14.89,4.73,22.06,.59,1.75,1.4,3.43,2.15,5.13,.25,.57,.43,1.05,.14,1.7-2.03,4.48-2.46,9.27-2.49,14.1-.04,6.34,.06,12.67,.1,19.01,0,1.29,0,2.58,0,4.23-1.3-.88-2.18-1.65-2.94-2.55Z"/>
        <path class="cls-2" d="M142.29,271.71c.24-1.5,1.03-2.61,2.34-3.38,.78-.46,1.46-.32,2.11,.23,1.11,.94,1.64,2.17,1.74,3.59,.12,1.91,.19,3.82,.27,5.74,.03,0,.06,0,.08,0-.09,2.51-.19,5.02-.27,7.54-.04,1.21-.49,2.23-1.29,3.11-1,1.09-2.3,1.04-3.47,.16-1.39-1.05-1.73-2.55-1.79-4.06-.17-4.31-.39-8.63,.29-12.93Z"/>
        <path class="cls-2" d="M109.66,257.5c7.37,5.87,15.27,10.76,24.48,13.51v10.95c-11.21-5.4-19.15-13.6-24.48-24.47Z"/>
        <path class="cls-2" d="M252.98,226.41c-.26,.48-.49,.91-.73,1.33-5.35,8.97-12.25,16.63-20.12,23.42-15.21,13.12-32.35,22.83-51.54,28.86-6.69,2.1-13.53,3.46-20.52,4.05-.69,.06-1.39,0-2.24,0v-12.06c.74-.2,1.62-.45,2.5-.66,23.72-5.82,44.22-17.37,61.36-34.76,7.78-7.89,14.11-16.83,18.37-27.13,.08-.19,.19-.37,.43-.84,4.24,6.03,8.36,11.89,12.5,17.79Z"/>
        <path class="cls-2" d="M200.46,229.68c-.11-.82,0-1.41,.73-1.97,6.32-4.78,12.61-9.6,18.91-14.41,.21-.16,.44-.3,.77-.53,1.47,2.15,2.91,4.24,4.37,6.38-7.14,10.28-16,18.58-26.45,25.56,.47-1.8,.95-3.35,1.28-4.94,.71-3.34,.85-6.72,.39-10.11Z"/>
        <path class="cls-2" d="M264.32,148.66c-8.09,5.59-16.19,11.18-24.29,16.77-.22,.16-.45,.31-.67,.47-1.66,1.21-1.78,1.76-.64,3.52,2.62,4.03,5.28,8.04,8.03,12.23-16.1,12.28-32.18,24.55-48.38,36.91-.71-1.75-.87-3.38-.92-4.99-.14-4.2-.27-8.41-.22-12.62,.08-6.06,1.41-11.91,3.23-17.67,1.35-4.27,2.54-8.58,3.74-12.89,.17-.62,.39-1.08,.93-1.43,4.52-2.94,8.03-6.9,11.07-11.29,5.5-7.92,9.25-16.59,10.95-26.1,.73-4.06,.97-8.15,.11-12.23-.21-.99-.63-1.97-1.12-2.86-.3-.54-.87-1.05-1.64-.77-.77,.28-.8,.97-.76,1.64,.94,15.09-5.05,27.54-14.68,38.59-.77,.88-1.68,1.63-2.76,2.24,.21-.34,.41-.7,.64-1.03,5.88-8.46,9.34-17.87,10.86-28.02,1.27-8.47,1.08-16.89-1.01-25.23-.92-3.67-2.25-7.19-4.05-10.53-.17-.32-.32-.65-.38-1.08,11.57,5.49,21.69,12.96,30.57,22.12,9.49,9.78,17.03,20.88,22.4,33.48-.41,.32-.7,.56-1.01,.77Z"/>
        <path class="cls-1" d="M265.33,147.89c-.41,.32-.7,.56-1.01,.77-8.09,5.59-16.19,11.18-24.29,16.77-.22,.16-.45,.31-.67,.47-1.66,1.21-1.78,1.76-.64,3.52,2.62,4.03,5.28,8.04,8.03,12.23-16.1,12.28-32.18,24.55-48.38,36.91-.71-1.75-.87-3.38-.92-4.99-.14-4.2-.27-8.41-.22-12.62,.08-6.06,1.41-11.91,3.23-17.67,1.35-4.27,2.54-8.58,3.74-12.89,.17-.62,.39-1.08,.93-1.43,4.52-2.94,8.03-6.9,11.07-11.29,5.5-7.92,9.25-16.59,10.95-26.1,.73-4.06,.97-8.15,.11-12.23-.21-.99-.63-1.97-1.12-2.86-.3-.54-.87-1.05-1.64-.77-.77,.28-.8,.97-.76,1.64,.94,15.09-5.05,27.54-14.68,38.59-.77,.88-1.68,1.63-2.76,2.24,.21-.34,.41-.7,.64-1.03,5.88-8.46,9.34-17.87,10.86-28.02,1.27-8.47,1.08-16.89-1.01-25.23-.92-3.67-2.25-7.19-4.05-10.53-.17-.32-.32-.65-.38-1.08,11.57,5.49,21.69,12.96,30.57,22.12,9.49,9.78,17.03,20.88,22.4,33.48Z"/>
        <path class="cls-1" d="M157.82,284.07v-12.06c.74-.2,1.62-.45,2.5-.66,23.72-5.82,44.22-17.37,61.36-34.76,7.78-7.89,14.11-16.83,18.37-27.13,.08-.19,.19-.37,.43-.84,4.24,6.03,8.36,11.89,12.5,17.79-.26,.48-.49,.91-.73,1.33-5.35,8.97-12.25,16.63-20.12,23.42-15.21,13.12-32.35,22.84-51.54,28.86-6.69,2.1-13.53,3.46-20.52,4.05-.69,.06-1.39,0-2.24,0Z"/>
        <path class="cls-1" d="M198.04,154.77c-1.68-1.49-3.1-2.76-4.56-4.06,.34-.43,.65-.8,.95-1.18,5.4-6.64,7.99-14.23,7.55-22.79-.15-2.86-.83-5.62-2.07-8.21-.28-.59-.6-1.17-.97-1.71-.86-1.25-1.51-1.46-2.94-.88-2.33,.94-4.63,1.94-6.94,2.92-6.63,2.82-13.26,5.64-19.88,8.46-.44,.19-.89,.36-1.51,.61-.05-.52-.13-.93-.11-1.33,.39-8.91,2.31-17.42,6.6-25.31,1.97-3.63,4.41-6.91,7.64-9.54,2.09-1.71,4.37-3.12,7.04-3.69,5.01-1.07,9.39,.24,12.76,4.06,3.69,4.17,5.86,9.21,7.1,14.6,3.49,15.21,1.13,29.51-6.99,42.84-.91,1.49-2.06,2.83-3.08,4.24-.19,.27-.34,.56-.58,.97Z"/>
        <path class="cls-1" d="M102.13,112.43c-.26,7.02-.21,13.83,.45,20.65,.72,7.54,2.31,14.89,4.73,22.06,.59,1.75,1.4,3.43,2.15,5.13,.25,.57,.43,1.05,.14,1.7-2.03,4.48-2.46,9.27-2.49,14.1-.04,6.34,.06,12.67,.1,19.01,0,1.29,0,2.58,0,4.23-1.3-.88-2.18-1.65-2.95-2.55-3.3-3.89-5.03-8.4-5.18-13.5-.04-1.42-.04-2.84,.01-4.26,.15-4.71-1.02-9.02-4-12.7-3.3-4.08-6.6-8.18-10.54-11.67-3.31-2.93-6.77-5.7-10.16-8.54-.21-.17-.44-.32-.75-.54,9.58-11.14,19.04-22.13,28.49-33.13Z"/>
        <path class="cls-1" d="M143.83,133.42c-.66-.49-1.13-.82-1.59-1.17-6.85-5.26-13.7-10.52-20.56-15.77-.39-.3-.78-.59-1.19-.87-.67-.45-1.35-.47-1.94,.11-.62,.61-1.27,1.21-1.77,1.92-2.6,3.68-3.81,7.83-4.06,12.29-.38,6.83,1.15,13.13,5.39,18.64,.06,.08,.09,.19,.18,.41-1.08,1.14-2.2,2.31-3.44,3.61-.27-.59-.52-1.06-.7-1.54-4.25-11.32-5.71-22.98-3.94-34.97,.68-4.62,1.96-9.08,4.23-13.2,1.17-2.13,2.59-4.06,4.46-5.62,2.7-2.24,5.74-3.39,9.27-2.53,.98,.24,1.98,.64,2.82,1.21,2.85,1.95,4.94,4.61,6.64,7.59,2.52,4.41,4,9.21,4.95,14.17,.9,4.74,1.29,9.53,1.34,14.35,0,.36-.04,.73-.07,1.4Z"/>
        <path class="cls-1" d="M198.79,244.73c.47-1.8,.95-3.35,1.28-4.94,.71-3.34,.85-6.72,.39-10.11-.11-.82,0-1.41,.73-1.97,6.32-4.78,12.61-9.6,18.91-14.41,.21-.16,.44-.3,.77-.53,1.47,2.15,2.91,4.24,4.37,6.38-7.14,10.28-16,18.58-26.45,25.56Z"/>
        <path class="cls-1" d="M134.14,281.96c-11.21-5.4-19.15-13.6-24.48-24.47,7.37,5.87,15.27,10.76,24.48,13.51v10.95Z"/>
        <path class="cls-1" d="M187.18,146.87c-1.5-.99-3.02-2-4.59-3.04,3.88-4.51,3.88-9.54,2.44-15,2.76-1.33,5.54-2.66,8.31-3.99,2.39,4.89-1.22,17.75-6.17,22.03Z"/>
        <path class="cls-1" d="M148.83,277.9c-.09,2.51-.19,5.02-.27,7.53-.04,1.21-.49,2.23-1.29,3.11-1,1.09-2.3,1.04-3.47,.16-1.39-1.05-1.73-2.55-1.79-4.06-.17-4.31-.39-8.63,.29-12.93,.24-1.5,1.03-2.61,2.34-3.38,.78-.46,1.46-.32,2.11,.23,1.11,.94,1.64,2.17,1.74,3.59,.12,1.91,.19,3.82,.27,5.74h.08Z"/>
        <path class="cls-1" d="M121.52,124.68c1.9,1.48,3.78,2.95,5.77,4.5-2.81,4.26-2.66,8.31,.98,12.15-1.46,.95-2.84,1.86-4.21,2.75-4.09-4.31-5.84-13.81-2.54-19.4Z"/>
        <path class="cls-1" d="M155.33,152.46c-.49-.23-1.01-.44-1.54-.56-2.75-.65-5.53-.69-8.3-.22-1.39,.24-2.76,.67-4.07,1.18-.93,.36-2.17,.8-2.07,2.03,.1,1.19,1.38,1.52,2.34,1.76,1.84,.46,3.73,.7,5.6,1.04,2.86-.22,5.59-.62,8.13-1.93,.72-.37,1.6-.79,1.6-1.71,0-.95-.96-1.23-1.69-1.58Z"/>
        <path class="cls-1" d="M196.02,163.53c-.7-1.34-1.58-2.62-2.54-3.8-2.31-2.85-5.43-4.75-8.46-6.69-5.94-3.81-12.13-7.16-18.71-9.76-1.93-.76-3.86-1.52-5.78-2.29-1.5-.6-2.43-1.63-2.46-3.32-.07-5.31,.03-10.61,.82-15.87,1.01-6.68,3.16-13.04,5.57-19.33,2.41-6.28,5.98-11.77,10.93-16.35,.75-.69,1.5-1.37,2.44-2.23-.55-.08-.85-.16-1.15-.16-3.23,0-6.45,.2-9.6,.98-1.9,.47-3.77,1.08-5.66,1.64-1.32,.39-2.25,.09-2.54-1.01-.14-.52,.01-1.19,.22-1.71,1.24-3.13,1.92-6.38,2.11-9.73,.21-3.81-.25-7.54-1.83-11.06-.72-1.61-1.64-3.09-3.13-4.19-1.35,1.03-2.27,2.38-3.08,3.79-2.16,3.77-3.27,7.86-3.34,12.2-.05,3.17,.41,6.22,2.42,8.84,.1,.13,.18,.28,.24,.43,.51,1.23-.24,2.21-1.58,2.07-.27-.03-.54-.1-.8-.17-3.28-.83-6.61-.84-9.94-.58-2.51,.2-4.97,.74-7.3,1.74-.31,.13-.57,.37-.96,.64,6.4,3.29,10.33,8.57,13.17,14.77,.82,1.78,1.51,3.63,2.14,5.49,2.08,6.15,3.12,12.52,3.52,18.97,.25,3.98,.17,7.98,.18,11.97,0,1.43-.25,1.66-1.5,1.93-4.5,.97-8.78,2.57-12.97,4.46-7.12,3.21-12.77,8.14-17.07,14.62-1.98,2.97-3.51,6.12-4.38,9.64-1.3,5.29-1,10.64-1.02,15.99-.02,3.83,.3,7.65,.24,11.48-.07,4.09-.38,8.17-1.11,12.23-.88,4.86-1.99,9.62-4.14,14.1-1.59,3.29-3.14,6.6-4.69,9.88,2.12,4.52,7.06,11.34,11.19,15.54,3.46,3.52,7.37,6.51,11.21,9.59,.67,.54,1.47,.95,2.24,1.34,.97,.5,1.88,.36,2.71-.4,1.08-.97,1.91-2.09,2.38-3.48,1.93-5.75,3.96-11.46,5.76-17.24,.95-3.06,1.53-6.24,2.3-9.48-.44-.19-.63-.29-.84-.35-5.4-1.57-9.43-4.92-12.48-9.56-.24-.36-.47-.74-.62-1.15-.37-1.03,.09-1.69,1.16-1.83,1.03-.13,1.76,.44,2.54,.94,6.18,3.97,12.86,5.24,20.06,3.78,3.25-.66,6.26-1.88,9.13-3.51,1.1-.63,1.84-.54,2.51,.19,.56,.61,.56,1.19-.12,2.23-2.83,4.3-6.62,7.38-11.6,8.87-1.04,.31-2.11,.51-3.26,.79,0,1.09-.05,2.17,0,3.26,.3,5.29,.5,10.59,.97,15.87,.44,5.01,2.51,9.04,7.39,11.33,2.31,1.09,4.42,1.08,6.53-.08,4.16-2.3,8.3-4.63,12.36-7.09,4.24-2.58,7.86-5.85,10.69-10.01,3.32-4.87,5.21-10.01,4.39-16.02-.67-4.92-1.02-9.89-1.6-14.83-.65-5.56-.77-11.12-.2-16.69,.65-6.34,2.31-12.44,4.49-18.42,.9-2.46,1.85-4.91,2.57-7.43,.54-1.89,.82-3.92-.15-5.77Zm-73.21,14.48c1.96,.01,3.57,1.57,3.61,3.49,.04,1.95-1.52,3.49-3.54,3.49-2.06,0-3.67-1.57-3.67-3.59,0-1.98,1.51-3.42,3.6-3.4Zm-4.49,17.26c-.04-1.86,1.5-3.37,3.44-3.38,1.78,0,3.15,1.3,3.17,3.03,.01,1.82-1.44,3.24-3.35,3.27-1.84,.03-3.21-1.2-3.26-2.92Zm51.7,3.85c-1.93,0-3.4-1.37-3.42-3.19-.02-1.93,1.71-3.62,3.68-3.61,1.9,.02,3.41,1.44,3.44,3.23,.03,1.92-1.67,3.56-3.7,3.56Zm-4.18-17.18c-.01-1.81,1.47-3.19,3.41-3.17,1.97,.02,3.6,1.61,3.57,3.49-.03,1.76-1.44,3.07-3.32,3.07-2.02,0-3.65-1.5-3.66-3.38Zm11.34-18.88c-.86,2.64-2.76,4.57-5.13,5.97-2.38,1.41-3.2,2.22-5.96,2.48-1.3,.12-4.37,.24-5.76,.36-2.5,6.94-5.22,11.84-12.78,13.46-.04,.35-.08,.51-.07,.67,.13,2.84,.26,5.68,.39,8.58,.5,.34,.98,.68,1.48,1,6.89,4.44,13.78,8.88,20.67,13.32,.46,.3,.92,.6,1.33,.95,.51,.44,.65,1.02,.34,1.63-.31,.61-.87,.88-1.51,.71-.73-.19-1.45-.49-2.14-.8-6.9-3.15-13.82-6.28-20.69-9.5-1.24-.58-2.24-.64-3.52-.07-6.03,2.7-12.1,5.3-18.16,7.94-.6,.26-1.2,.55-1.82,.73-.86,.24-1.66-.24-2.1-1.17-.37-.78-.09-1.38,.56-1.85,.49-.35,.99-.69,1.49-1.01,5.55-3.59,11.09-7.21,16.69-10.73,1.33-.84,2.04-1.69,1.92-3.36-.17-2.28-.04-4.58-.04-7-.06-.04-.22-.23-.41-.27-7.09-1.76-11.28-6.51-13.59-13.19-1.01-2.93-1.57-5.99-1.09-9.04,1.21-7.58,4.84-13.36,12.5-16,5.67-1.95,9.74-2.72,15.66-2.14,6.98,.68,13.42,3,18.69,7.87,3.43,3.17,4.44,6.2,3.06,10.46Zm-15.23,26.74c0,1.68-1.41,3.04-3.18,3.07-1.92,.03-3.58-1.46-3.62-3.26-.05-1.68,1.47-3.16,3.27-3.21,1.76-.05,3.53,1.65,3.53,3.4Zm-32.53-.96c.05-1.71,1.54-2.97,3.45-2.91,1.73,.05,3.09,1.34,3.09,2.93,0,1.67-1.56,3.05-3.4,3.02-1.81-.03-3.19-1.37-3.14-3.04Z"/>
        <path class="cls-1" d="M147.3,157.68c-1.87-.33-3.77-.58-5.6-1.04-.96-.24-2.24-.57-2.34-1.76-.1-1.22,1.14-1.67,2.07-2.03,1.31-.51,2.68-.94,4.07-1.18,2.77-.47,5.55-.43,8.3,.22,.53,.12,1.04,.33,1.54,.56,.73,.34,1.68,.63,1.69,1.58,0,.91-.88,1.33-1.6,1.71-2.53,1.31-5.27,1.72-8.13,1.93Z"/>
      </g>
      <g>
        <g>
          <path class="cls-1" d="M401.14,293.72v-7.16l8.52-1.46v-62.28l-8.36-1.62v-7h33.8v7l-8.93,1.62v26.17h31.19v-26.17l-8.46-1.62v-7h33.33v7l-8.36,1.62v62.33l8.36,1.41v7.16h-33.23v-7.16l8.36-1.46v-27.85h-31.19v27.85l8.93,1.46v7.16h-33.96Z"/>
          <path class="cls-1" d="M491.22,293.72v-7l7.63-.99v-40.23l-7.05-2.25v-7.84l19.17-2.56h.26l3.81,2.25v50.57l7.58,1.04v7h-31.4Zm13.9-69.7c-1.22,0-2.31-.23-3.27-.68-.96-.45-1.76-1.05-2.4-1.8s-1.13-1.64-1.46-2.67c-.33-1.03-.5-2.12-.5-3.26,0-1.36,.18-2.64,.55-3.84,.37-1.2,.93-2.25,1.7-3.16,.77-.91,1.71-1.62,2.85-2.14s2.45-.78,3.94-.78h.05c1.43,0,2.66,.23,3.68,.71,1.03,.47,1.89,1.1,2.59,1.88,.7,.78,1.21,1.68,1.54,2.69,.33,1.01,.5,2.07,.5,3.19,0,1.39-.19,2.69-.57,3.89-.38,1.2-.97,2.25-1.75,3.13-.78,.89-1.79,1.59-3.03,2.09-1.24,.51-2.69,.76-4.36,.76h-.05Z"/>
          <path class="cls-1" d="M556.32,273.29c-2.89,0-5.54-.21-7.94-.63-.59,.59-1.08,1.28-1.46,2.06-.38,.78-.58,1.7-.58,2.74,0,1.22,.23,2.19,.68,2.93,.45,.73,1.17,1.3,2.14,1.7,.97,.4,2.22,.67,3.74,.81,1.52,.14,3.33,.21,5.46,.21h10.45c7.52,0,13.12,1.27,16.8,3.81,3.67,2.54,5.51,6.71,5.51,12.49,0,3.52-.91,6.7-2.74,9.56-1.83,2.86-4.29,5.29-7.39,7.29-3.1,2-6.69,3.55-10.76,4.65-4.07,1.1-8.34,1.65-12.8,1.65h-.05c-4.91,0-9.12-.44-12.62-1.31-3.5-.87-6.37-2.07-8.62-3.61-2.25-1.53-3.9-3.36-4.96-5.49-1.06-2.12-1.59-4.44-1.59-6.95,0-1.6,.29-3.11,.89-4.52,.59-1.41,1.38-2.7,2.35-3.87,.98-1.17,2.12-2.19,3.42-3.06,1.31-.87,2.66-1.55,4.05-2.04-2.02-1.04-3.57-2.37-4.65-3.97-1.08-1.6-1.62-3.48-1.62-5.64,0-2.65,.7-4.88,2.09-6.71,1.39-1.83,3.17-3.44,5.33-4.83-3.55-1.6-6.17-3.87-7.86-6.79s-2.53-6.41-2.53-10.45c0-3.13,.71-5.97,2.12-8.52,1.41-2.54,3.33-4.71,5.77-6.5,2.44-1.79,5.28-3.18,8.52-4.15,3.24-.97,6.71-1.46,10.4-1.46h.05c8.71,0,15.17,1.67,19.38,5.02,.49-.59,1.15-1.19,1.99-1.8,.84-.61,1.79-1.16,2.87-1.65,1.08-.49,2.28-.9,3.61-1.23,1.32-.33,2.72-.5,4.18-.5h2.46v11.7h-10.29c.38,1.12,.69,2.28,.91,3.5,.23,1.22,.34,2.54,.34,3.97,0,3.13-.65,6.02-1.96,8.65-1.31,2.63-3.15,4.9-5.54,6.82-2.39,1.92-5.23,3.41-8.54,4.49-3.31,1.08-6.95,1.62-10.92,1.62h-.05Zm-2.67,21.11c-2.23,0-4.32-.16-6.27-.47-.7,.77-1.35,1.77-1.96,3-.61,1.24-.92,2.93-.92,5.09,0,2.37,.31,4.36,.94,5.98,.63,1.62,1.55,2.94,2.77,3.97,1.22,1.03,2.72,1.77,4.52,2.22,1.79,.45,3.87,.68,6.24,.68h.1c2.12,0,4.2-.24,6.22-.73,2.02-.49,3.82-1.23,5.41-2.22,1.58-.99,2.86-2.24,3.81-3.74,.96-1.5,1.44-3.26,1.44-5.28,0-1.53-.17-2.84-.5-3.92-.33-1.08-.92-1.96-1.78-2.64-.85-.68-2.02-1.18-3.5-1.49-1.48-.31-3.37-.47-5.67-.47h-10.87Zm3.92-28.11h.05c1.78,0,3.25-.36,4.42-1.07,1.17-.71,2.08-1.68,2.74-2.9,.66-1.22,1.12-2.67,1.38-4.34,.26-1.67,.39-3.43,.39-5.28,0-4.6-.74-7.93-2.22-10.01-1.48-2.07-3.91-3.11-7.29-3.11h-.05c-3.31,0-5.69,1.04-7.16,3.13s-2.2,5.28-2.2,9.56c0,2.06,.16,3.94,.47,5.67,.31,1.72,.85,3.21,1.62,4.44,.77,1.24,1.79,2.19,3.06,2.87,1.27,.68,2.87,1.02,4.78,1.02Z"/>
          <path class="cls-1" d="M596.28,293.72v-7l6.43-1.04v-69.75l-7.84-1.31v-6.11l20.32-2.56h.26l3.19,2.46,.11,24.61-.84,8.31c.94-.87,2.12-1.79,3.53-2.77,1.41-.97,3-1.87,4.78-2.69s3.72-1.5,5.83-2.04c2.11-.54,4.33-.81,6.66-.81,3.41,0,6.24,.47,8.46,1.41,2.23,.94,4,2.39,5.3,4.34,1.31,1.95,2.23,4.42,2.77,7.39,.54,2.98,.81,6.5,.81,10.58v28.94l7.37,1.04v7h-29.26v-6.79l5.8-1.15v-29.21c0-2.4-.12-4.48-.37-6.24-.24-1.76-.71-3.19-1.38-4.31-.68-1.11-1.62-1.94-2.82-2.48-1.2-.54-2.74-.81-4.62-.81-1.08,0-2.19,.12-3.34,.37-1.15,.24-2.25,.55-3.32,.91-1.06,.37-2.06,.78-3,1.25-.94,.47-1.72,.95-2.35,1.44v38.98l7.16,1.04v7h-29.62Z"/>
          <path class="cls-1" d="M730.61,294.92c-3.24,0-6.23-.24-8.96-.71-2.73-.47-5.2-.99-7.39-1.57-2.19-.57-4.08-1.11-5.64-1.62s-2.79-.79-3.66-.86l.89-19.8h9.4l2.3,12.96c.91,1.01,2.42,1.95,4.54,2.82,2.12,.87,4.72,1.31,7.79,1.31,2.44,0,4.51-.29,6.22-.86,1.71-.57,3.09-1.38,4.15-2.4,1.06-1.03,1.83-2.23,2.3-3.6,.47-1.38,.71-2.86,.71-4.47,0-1.85-.4-3.51-1.2-4.99-.8-1.48-1.95-2.87-3.45-4.18-1.5-1.31-3.33-2.56-5.49-3.76-2.16-1.2-4.6-2.46-7.31-3.79-2.09-.97-4.31-2.16-6.66-3.55-2.35-1.39-4.52-3.1-6.5-5.12-1.98-2.02-3.64-4.39-4.96-7.11-1.32-2.72-1.99-5.87-1.99-9.46,0-2.86,.58-5.55,1.75-8.1,1.17-2.54,2.9-4.76,5.2-6.66,2.3-1.9,5.16-3.4,8.57-4.52,3.41-1.11,7.37-1.67,11.86-1.67,2.4,0,4.75,.17,7.05,.52,2.3,.35,4.44,.74,6.43,1.17,1.99,.44,3.74,.86,5.25,1.28,1.51,.42,2.67,.7,3.47,.84l-.68,18.03h-9.2l-2.14-11.86c-.28-.31-.74-.63-1.38-.97-.65-.33-1.39-.63-2.25-.91-.85-.28-1.79-.5-2.79-.68-1.01-.17-2.04-.26-3.08-.26-2.16,0-4,.24-5.54,.71-1.53,.47-2.78,1.14-3.74,2.01-.96,.87-1.66,1.9-2.12,3.08-.45,1.18-.68,2.49-.68,3.92,0,2.02,.45,3.81,1.36,5.36,.91,1.55,2.17,2.98,3.79,4.28,1.62,1.31,3.54,2.56,5.77,3.76,2.23,1.2,4.67,2.46,7.31,3.79,2.3,1.15,4.65,2.45,7.05,3.89,2.4,1.45,4.6,3.11,6.58,4.99s3.6,4.02,4.86,6.43,1.88,5.16,1.88,8.25c0,2.75-.54,5.56-1.62,8.41-1.08,2.86-2.8,5.45-5.17,7.78-2.37,2.33-5.43,4.23-9.2,5.7s-8.33,2.19-13.69,2.19Z"/>
          <path class="cls-1" d="M767.34,264.51c0-4.7,.71-9,2.12-12.91,1.41-3.9,3.42-7.25,6.03-10.06,2.61-2.8,5.77-4.98,9.48-6.53,3.71-1.55,7.86-2.33,12.46-2.33,2.33,0,4.48,.13,6.43,.39,1.95,.26,3.69,.57,5.22,.92,1.53,.35,2.86,.71,3.97,1.07,1.12,.37,2.02,.65,2.72,.86l-.52,17.82h-9.2l-3.03-9.2c-.77-1.46-1.71-2.61-2.82-3.45-1.12-.84-2.47-1.25-4.08-1.25s-3.06,.39-4.47,1.17c-1.41,.78-2.66,2.02-3.76,3.71-1.1,1.69-1.98,3.88-2.64,6.56-.66,2.68-.99,5.92-.99,9.72,0,4.32,.34,7.98,1.02,10.97,.68,3,1.67,5.42,2.98,7.26,1.31,1.85,2.9,3.18,4.78,4,1.88,.82,3.99,1.23,6.32,1.23,3.24,0,6.03-.44,8.38-1.31,2.35-.87,4.33-1.81,5.93-2.82l2.77,6.32c-.73,.8-1.79,1.68-3.16,2.64-1.38,.96-2.98,1.86-4.81,2.69-1.83,.84-3.85,1.53-6.06,2.09s-4.52,.84-6.92,.84c-4.91,0-9.14-.77-12.7-2.3s-6.47-3.66-8.75-6.37c-2.28-2.72-3.97-5.93-5.07-9.64-1.1-3.71-1.65-7.74-1.65-12.09Z"/>
          <path class="cls-1" d="M823.03,293.72v-7l6.43-1.04v-69.75l-7.84-1.31v-6.11l20.32-2.56h.26l3.19,2.46,.11,24.61-.84,8.31c.94-.87,2.12-1.79,3.53-2.77,1.41-.97,3-1.87,4.78-2.69s3.72-1.5,5.83-2.04c2.11-.54,4.33-.81,6.66-.81,3.41,0,6.24,.47,8.46,1.41,2.23,.94,4,2.39,5.3,4.34,1.31,1.95,2.23,4.42,2.77,7.39,.54,2.98,.81,6.5,.81,10.58v28.94l7.37,1.04v7h-29.26v-6.79l5.8-1.15v-29.21c0-2.4-.12-4.48-.37-6.24-.24-1.76-.71-3.19-1.38-4.31-.68-1.11-1.62-1.94-2.82-2.48-1.2-.54-2.74-.81-4.62-.81-1.08,0-2.19,.12-3.34,.37-1.15,.24-2.25,.55-3.32,.91-1.06,.37-2.06,.78-3,1.25-.94,.47-1.72,.95-2.35,1.44v38.98l7.16,1.04v7h-29.62Z"/>
          <path class="cls-1" d="M895.45,264.15c0-5.29,.82-9.91,2.46-13.84,1.64-3.94,3.81-7.21,6.53-9.82s5.86-4.56,9.43-5.85c3.57-1.29,7.29-1.93,11.15-1.93,4.53,0,8.53,.71,12.02,2.12,3.48,1.41,6.41,3.44,8.78,6.09,2.37,2.65,4.16,5.87,5.38,9.67,1.22,3.8,1.83,8.1,1.83,12.91,0,5.43-.82,10.14-2.46,14.11-1.64,3.97-3.81,7.24-6.53,9.8-2.72,2.56-5.85,4.46-9.4,5.69-3.55,1.24-7.26,1.86-11.13,1.86-4.53,0-8.53-.71-12.02-2.12-3.48-1.41-6.42-3.44-8.8-6.09-2.39-2.65-4.19-5.87-5.41-9.67-1.22-3.8-1.83-8.1-1.83-12.91Zm28.94,23.56c1.92,0,3.57-.43,4.96-1.28,1.39-.85,2.55-2.19,3.47-4.02,.92-1.83,1.6-4.17,2.04-7.03,.44-2.86,.65-6.27,.65-10.24s-.2-7.69-.6-10.84c-.4-3.15-1.04-5.79-1.93-7.92-.89-2.12-2.06-3.74-3.5-4.83-1.45-1.1-3.21-1.65-5.3-1.65-1.92,0-3.58,.43-4.99,1.28-1.41,.85-2.59,2.19-3.53,4.02-.94,1.83-1.64,4.17-2.09,7.03-.45,2.86-.68,6.27-.68,10.24s.21,7.69,.63,10.84c.42,3.15,1.09,5.79,2.01,7.92,.92,2.12,2.11,3.74,3.55,4.83,1.45,1.1,3.21,1.65,5.3,1.65Z"/>
          <path class="cls-1" d="M959.81,264.15c0-5.29,.82-9.91,2.46-13.84,1.64-3.94,3.81-7.21,6.53-9.82s5.86-4.56,9.43-5.85c3.57-1.29,7.29-1.93,11.15-1.93,4.53,0,8.53,.71,12.02,2.12,3.48,1.41,6.41,3.44,8.78,6.09,2.37,2.65,4.16,5.87,5.38,9.67,1.22,3.8,1.83,8.1,1.83,12.91,0,5.43-.82,10.14-2.46,14.11-1.64,3.97-3.81,7.24-6.53,9.8-2.72,2.56-5.85,4.46-9.4,5.69-3.55,1.24-7.26,1.86-11.13,1.86-4.53,0-8.53-.71-12.02-2.12-3.48-1.41-6.42-3.44-8.8-6.09-2.39-2.65-4.19-5.87-5.41-9.67-1.22-3.8-1.83-8.1-1.83-12.91Zm28.94,23.56c1.92,0,3.57-.43,4.96-1.28,1.39-.85,2.55-2.19,3.47-4.02,.92-1.83,1.6-4.17,2.04-7.03,.44-2.86,.65-6.27,.65-10.24s-.2-7.69-.6-10.84c-.4-3.15-1.04-5.79-1.93-7.92-.89-2.12-2.06-3.74-3.5-4.83-1.45-1.1-3.21-1.65-5.3-1.65-1.92,0-3.58,.43-4.99,1.28-1.41,.85-2.59,2.19-3.53,4.02-.94,1.83-1.64,4.17-2.09,7.03-.45,2.86-.68,6.27-.68,10.24s.21,7.69,.63,10.84c.42,3.15,1.09,5.79,2.01,7.92,.92,2.12,2.11,3.74,3.55,4.83,1.45,1.1,3.21,1.65,5.3,1.65Z"/>
          <path class="cls-1" d="M1023.76,293.72v-7l7.58-1.04v-69.75l-7.78-1.31v-6.11l20.43-2.56h.16l3.29,2.46v77.27l7.89,1.04v7h-31.56Z"/>
        </g>
        <g>
          <path class="cls-1" d="M401.34,160.33v-10.84l13.92-2.21V52.99l-13.92-2.45v-10.6h52.76v10.6l-13.84,2.45v94.29l13.84,2.37v10.68h-52.76Z"/>
          <path class="cls-1" d="M468.73,160.33v-10.6l10.2-1.58v-60.83l-10.76-3.32v-11.94l28.32-3.88h.4l4.19,3.4v9.41c1.74-1.58,3.8-3.14,6.17-4.67,2.37-1.53,4.94-2.87,7.71-4.03,2.77-1.16,5.68-2.1,8.74-2.81s6.14-1.07,9.26-1.07c5.06,0,9.29,.66,12.7,1.98,3.4,1.32,6.1,3.43,8.11,6.33,2,2.9,3.43,6.63,4.27,11.19,.84,4.56,1.27,10.06,1.27,16.49v43.82l11.23,1.5v10.6h-44.53v-10.6l8.62-1.5v-44.14c0-3.64-.19-6.79-.55-9.45-.37-2.66-1.04-4.84-2.02-6.53-.98-1.69-2.32-2.94-4.04-3.76-1.71-.82-3.91-1.23-6.6-1.23-1.79,0-3.56,.2-5.3,.59s-3.39,.91-4.94,1.54c-1.56,.63-2.98,1.33-4.27,2.1-1.29,.77-2.41,1.52-3.36,2.25v58.54l10.6,1.58v10.6h-45.4Z"/>
          <path class="cls-1" d="M588.89,141.35v-58.22h-11.15v-9.02c.42-.1,1.09-.33,2.02-.67,.92-.34,1.87-.7,2.85-1.07,.97-.37,1.86-.72,2.65-1.07,.79-.34,1.29-.59,1.5-.75,1.79-1.42,3.66-3.96,5.62-7.59,.53-1.05,1.11-2.28,1.74-3.68,.63-1.4,1.25-2.86,1.86-4.39,.61-1.53,1.17-3.05,1.7-4.55,.53-1.5,.97-2.86,1.34-4.07h14.08l.24,23.41h23.26v13.45h-23.26v43.82c0,4.22,.06,7.57,.2,10.05,.13,2.48,.45,4.35,.95,5.62,.5,1.27,1.28,2.08,2.33,2.45,1.05,.37,2.5,.55,4.35,.55h.08c1.27,0,2.6-.1,3.99-.32,1.4-.21,2.77-.46,4.11-.75,1.35-.29,2.58-.61,3.72-.95,1.13-.34,2.07-.65,2.81-.91h.08l3.72,9.25c-1.58,1.21-3.52,2.43-5.81,3.64-2.29,1.21-4.83,2.31-7.59,3.28-2.77,.98-5.7,1.77-8.78,2.37-3.08,.61-6.18,.91-9.29,.91h-.16c-3.48,0-6.45-.45-8.9-1.34-2.45-.9-4.43-2.23-5.93-3.99-1.5-1.77-2.6-3.94-3.28-6.53-.69-2.58-1.03-5.56-1.03-8.94Z"/>
          <path class="cls-1" d="M688.63,162.15c-7.44,0-13.83-1.16-19.18-3.48-5.35-2.32-9.76-5.55-13.21-9.69-3.46-4.14-6-9.08-7.63-14.83-1.63-5.75-2.45-12.02-2.45-18.83,0-7.38,1.04-13.99,3.12-19.81,2.08-5.83,5.02-10.78,8.82-14.87,3.8-4.09,8.36-7.21,13.68-9.37,5.33-2.16,11.23-3.24,17.72-3.24,21.88,0,33.3,10.68,34.25,32.04,.11,3.64,.09,6.92-.04,9.85-.13,2.93-.41,5.39-.83,7.4h-51.65c.26,5.22,1.03,9.68,2.29,13.37,1.27,3.69,2.93,6.7,4.98,9.02,2.06,2.32,4.49,4.01,7.32,5.06,2.82,1.06,5.92,1.58,9.29,1.58,2.69,0,5.19-.21,7.51-.63,2.32-.42,4.47-.95,6.45-1.58,1.98-.63,3.77-1.34,5.38-2.14,1.61-.79,2.99-1.55,4.15-2.29l4.11,9.57c-1.32,1.37-3.15,2.81-5.5,4.31-2.35,1.5-5.04,2.89-8.07,4.15-3.03,1.27-6.3,2.32-9.81,3.16-3.51,.84-7.08,1.27-10.72,1.27Zm-2.14-83.53c-2.06,0-3.97,.37-5.73,1.11-1.77,.74-3.32,2.14-4.67,4.19-1.34,2.06-2.45,4.92-3.32,8.58-.87,3.67-1.41,8.4-1.62,14.2h28.4c0-.26,.01-.63,.04-1.11,.03-.47,.05-.98,.08-1.5,.03-.53,.04-1.03,.04-1.5v-1.03c0-2.69-.19-5.42-.55-8.19s-1.04-5.23-2.02-7.4c-.97-2.16-2.32-3.93-4.03-5.3-1.71-1.37-3.92-2.06-6.61-2.06Z"/>
          <path class="cls-1" d="M736.65,160.33v-10.6l11.39-1.5v-60.91l-10.76-3.32v-11.94l27.05-3.88h.47l4.19,3.4v6.57l-.08,12.34h.32c.63-1.69,1.78-3.81,3.44-6.37,1.66-2.56,3.72-5.04,6.17-7.44,2.45-2.4,5.27-4.46,8.46-6.17,3.19-1.71,6.66-2.57,10.4-2.57,1.63,0,2.89,.07,3.76,.2,.87,.13,1.59,.3,2.18,.51v27.37c-.58-.42-2.1-.88-4.55-1.38-2.45-.5-5.37-.75-8.74-.75-1.85,0-3.69,.11-5.54,.32-1.85,.21-3.57,.49-5.18,.83-1.61,.34-3.04,.75-4.31,1.23s-2.24,.95-2.93,1.42v50.47l19.7,1.9v10.28h-55.45Z"/>
          <path class="cls-1" d="M811.64,160.33v-10.6l11.47-1.58V42.55l-11.79-1.98v-9.25l30.93-3.88h.24l4.98,3.72v116.99l11.94,1.58v10.6h-47.78Z"/>
          <path class="cls-1" d="M868.04,136.28c0-3.9,.7-7.36,2.1-10.36,1.4-3.01,3.32-5.64,5.78-7.91,2.45-2.27,5.34-4.19,8.66-5.77s6.91-2.89,10.76-3.92,7.86-1.78,12.02-2.25,8.33-.76,12.5-.87v-3.8c0-6.01-1.22-10.3-3.68-12.85-2.45-2.56-6.47-3.84-12.06-3.84-2.85,0-5.71,.23-8.58,.67-2.88,.45-5.63,1-8.27,1.66-2.64,.66-5.08,1.4-7.32,2.21-2.24,.82-4.15,1.6-5.73,2.33h-.08l-4.67-10.6c1.11-.9,2.98-2.07,5.62-3.52,2.64-1.45,5.8-2.86,9.49-4.23,3.69-1.37,7.78-2.56,12.26-3.56,4.48-1,9.1-1.5,13.84-1.5,5.85,0,10.82,.63,14.91,1.9,4.09,1.27,7.41,3.22,9.97,5.85,2.56,2.64,4.43,5.97,5.62,10.01,1.19,4.03,1.78,8.79,1.78,14.28v49.36h9.81v9.73c-1,.21-2.24,.49-3.72,.83-1.48,.34-3.11,.66-4.9,.95-1.79,.29-3.72,.54-5.78,.75-2.06,.21-4.17,.32-6.33,.32-1.9,0-3.52-.08-4.86-.24-1.35-.16-2.43-.53-3.24-1.11-.82-.58-1.41-1.41-1.78-2.49-.37-1.08-.55-2.54-.55-4.39v-4.59c-.9,1.21-2.13,2.56-3.72,4.03-1.58,1.48-3.49,2.88-5.73,4.19-2.24,1.32-4.79,2.41-7.63,3.28s-5.98,1.31-9.41,1.31c-3.75,0-7.25-.5-10.52-1.5s-6.13-2.56-8.58-4.67c-2.45-2.11-4.39-4.8-5.81-8.07-1.42-3.27-2.13-7.15-2.13-11.63Zm37.57,10.6c.95,0,2.03-.13,3.24-.4,1.21-.26,2.48-.63,3.8-1.11,1.32-.47,2.61-1.04,3.88-1.7,1.27-.66,2.37-1.41,3.32-2.25v-26.18c-5.12,0-9.4,.47-12.85,1.42-3.46,.95-6.21,2.21-8.27,3.8s-3.52,3.4-4.39,5.46c-.87,2.06-1.3,4.25-1.3,6.57,0,4.69,1.07,8.27,3.2,10.72,2.14,2.45,5.26,3.68,9.37,3.68Z"/>
          <path class="cls-1" d="M960.43,160.33v-10.6l10.28-1.5V42.55l-11.47-1.98v-9.25l30.61-3.88h.24l4.98,3.72V101.95l-.4,12.26,30.77-31.64-12.34-2.14v-10.76h44.61v10.76l-14.71,2.85-19.62,17.96,30.53,46.91,9.73,1.58v10.6h-44.77v-10.6l7.99-1.74-19.38-33.06-12.81,12.34,.4,9.41v11.47l10.84,1.58v10.6h-45.48Z"/>
          <path class="cls-1" d="M1110.88,162.15c-7.44,0-13.83-1.16-19.18-3.48-5.35-2.32-9.76-5.55-13.21-9.69-3.46-4.14-6-9.08-7.63-14.83-1.63-5.75-2.45-12.02-2.45-18.83,0-7.38,1.04-13.99,3.12-19.81,2.08-5.83,5.02-10.78,8.82-14.87,3.8-4.09,8.36-7.21,13.68-9.37,5.33-2.16,11.23-3.24,17.72-3.24,21.88,0,33.3,10.68,34.25,32.04,.11,3.64,.09,6.92-.04,9.85-.13,2.93-.41,5.39-.83,7.4h-51.65c.26,5.22,1.03,9.68,2.29,13.37,1.27,3.69,2.93,6.7,4.98,9.02,2.06,2.32,4.49,4.01,7.32,5.06,2.82,1.06,5.92,1.58,9.29,1.58,2.69,0,5.19-.21,7.51-.63,2.32-.42,4.47-.95,6.45-1.58,1.98-.63,3.77-1.34,5.38-2.14,1.61-.79,2.99-1.55,4.15-2.29l4.11,9.57c-1.32,1.37-3.15,2.81-5.5,4.31-2.35,1.5-5.04,2.89-8.07,4.15-3.03,1.27-6.3,2.32-9.81,3.16-3.51,.84-7.08,1.27-10.72,1.27Zm-2.14-83.53c-2.06,0-3.97,.37-5.73,1.11-1.77,.74-3.32,2.14-4.67,4.19-1.34,2.06-2.45,4.92-3.32,8.58-.87,3.67-1.41,8.4-1.62,14.2h28.4c0-.26,.01-.63,.04-1.11,.03-.47,.05-.98,.08-1.5,.03-.53,.04-1.03,.04-1.5v-1.03c0-2.69-.19-5.42-.55-8.19s-1.04-5.23-2.02-7.4c-.97-2.16-2.32-3.93-4.03-5.3-1.71-1.37-3.92-2.06-6.61-2.06Z"/>
        </g>
      </g>
    </g>
  </g>
</svg>